<?xml version="1.0" encoding="UTF-8" standalone="no"?>
<!DOCTYPE svg PUBLIC "-//W3C//DTD SVG 1.1//EN"
 "http://www.w3.org/Graphics/SVG/1.1/DTD/svg11.dtd">
<!-- Generated by graphviz version 12.0.0 (20240704.0754)
 -->
<!-- Title: pastafarianism Pages: 1 -->
<svg width="2619pt" height="789pt"
 viewBox="0.00 0.00 2618.83 789.42" xmlns="http://www.w3.org/2000/svg" xmlns:xlink="http://www.w3.org/1999/xlink">
<g id="graph0" class="graph" transform="scale(1 1) rotate(0) translate(4 785.42)">
<title>pastafarianism</title>
<polygon fill="white" stroke="none" points="-4,4 -4,-785.42 2614.83,-785.42 2614.83,4 -4,4"/>
<!-- 3d7db1f6&#45;6c07&#45;4178&#45;bccf&#45;87e23ddb6f6e -->
<g id="node1" class="node">
<title>3d7db1f6&#45;6c07&#45;4178&#45;bccf&#45;87e23ddb6f6e</title>
<polygon fill="#b0ffff" stroke="black" points="1598.08,-781.42 1562.58,-781.42 1562.58,-750.17 1598.08,-750.17 1598.08,-781.42"/>
<text text-anchor="middle" x="1580.33" y="-758.42" font-family="Times New Roman,serif" font-size="20.00"> ? </text>
</g>
<!-- cae392e4&#45;b562&#45;47b6&#45;8d14&#45;77565a1897bc -->
<g id="node2" class="node">
<title>cae392e4&#45;b562&#45;47b6&#45;8d14&#45;77565a1897bc</title>
<polygon fill="#ff8080" stroke="black" points="1469.46,-714.17 1433.21,-714.17 1433.21,-682.92 1469.46,-682.92 1469.46,-714.17"/>
<text text-anchor="middle" x="1451.33" y="-691.17" font-family="Times New Roman,serif" font-size="20.00">→</text>
</g>
<!-- 3d7db1f6&#45;6c07&#45;4178&#45;bccf&#45;87e23ddb6f6e&#45;&gt;cae392e4&#45;b562&#45;47b6&#45;8d14&#45;77565a1897bc -->
<g id="edge1" class="edge">
<title>3d7db1f6&#45;6c07&#45;4178&#45;bccf&#45;87e23ddb6f6e&#45;&gt;cae392e4&#45;b562&#45;47b6&#45;8d14&#45;77565a1897bc</title>
<path fill="none" stroke="black" d="M1562.13,-755.58C1540.73,-744.76 1504.99,-726.68 1479.9,-713.99"/>
<polygon fill="black" stroke="black" points="1481.72,-710.99 1471.22,-709.6 1478.56,-717.23 1481.72,-710.99"/>
</g>
<!-- 53ce8d3f&#45;3235&#45;4d01&#45;9590&#45;5dd6f61d12ba -->
<g id="node5" class="node">
<title>53ce8d3f&#45;3235&#45;4d01&#45;9590&#45;5dd6f61d12ba</title>
<polygon fill="#ff8080" stroke="black" points="1727.46,-714.17 1691.21,-714.17 1691.21,-682.92 1727.46,-682.92 1727.46,-714.17"/>
<text text-anchor="middle" x="1709.33" y="-691.17" font-family="Times New Roman,serif" font-size="20.00">→</text>
</g>
<!-- 3d7db1f6&#45;6c07&#45;4178&#45;bccf&#45;87e23ddb6f6e&#45;&gt;53ce8d3f&#45;3235&#45;4d01&#45;9590&#45;5dd6f61d12ba -->
<g id="edge4" class="edge">
<title>3d7db1f6&#45;6c07&#45;4178&#45;bccf&#45;87e23ddb6f6e&#45;&gt;53ce8d3f&#45;3235&#45;4d01&#45;9590&#45;5dd6f61d12ba</title>
<path fill="none" stroke="black" d="M1598.54,-755.58C1619.93,-744.76 1655.68,-726.68 1680.77,-713.99"/>
<polygon fill="black" stroke="black" points="1682.11,-717.23 1689.45,-709.6 1678.95,-710.99 1682.11,-717.23"/>
</g>
<!-- 8d19899f&#45;c435&#45;4627&#45;b0e5&#45;e03eaa725455 -->
<g id="node3" class="node">
<title>8d19899f&#45;c435&#45;4627&#45;b0e5&#45;e03eaa725455</title>
<ellipse fill="#ffff80" stroke="black" cx="1211.33" cy="-624.82" rx="125.33" ry="22.1"/>
<text text-anchor="middle" x="1211.33" y="-617.44" font-family="Times New Roman,serif" font-size="20.00">IsIn(bananas,fridge)</text>
</g>
<!-- cae392e4&#45;b562&#45;47b6&#45;8d14&#45;77565a1897bc&#45;&gt;8d19899f&#45;c435&#45;4627&#45;b0e5&#45;e03eaa725455 -->
<g id="edge2" class="edge">
<title>cae392e4&#45;b562&#45;47b6&#45;8d14&#45;77565a1897bc&#45;&gt;8d19899f&#45;c435&#45;4627&#45;b0e5&#45;e03eaa725455</title>
<path fill="none" stroke="black" d="M1432.9,-692.03C1401.49,-682.65 1335.99,-663.07 1284.3,-647.62"/>
<polygon fill="black" stroke="black" points="1285.54,-644.34 1274.95,-644.83 1283.53,-651.05 1285.54,-644.34"/>
</g>
<!-- 294e8dc4&#45;e35a&#45;4595&#45;9603&#45;af6a8a25cea3 -->
<g id="node4" class="node">
<title>294e8dc4&#45;e35a&#45;4595&#45;9603&#45;af6a8a25cea3</title>
<ellipse fill="#ffff80" stroke="black" cx="1451.33" cy="-624.82" rx="96.17" ry="22.1"/>
<text text-anchor="middle" x="1451.33" y="-617.44" font-family="Times New Roman,serif" font-size="20.00">IsClose(fridge)</text>
</g>
<!-- cae392e4&#45;b562&#45;47b6&#45;8d14&#45;77565a1897bc&#45;&gt;294e8dc4&#45;e35a&#45;4595&#45;9603&#45;af6a8a25cea3 -->
<g id="edge3" class="edge">
<title>cae392e4&#45;b562&#45;47b6&#45;8d14&#45;77565a1897bc&#45;&gt;294e8dc4&#45;e35a&#45;4595&#45;9603&#45;af6a8a25cea3</title>
<path fill="none" stroke="black" d="M1451.33,-682.68C1451.33,-675.63 1451.33,-666.9 1451.33,-658.42"/>
<polygon fill="black" stroke="black" points="1454.83,-658.7 1451.33,-648.7 1447.83,-658.7 1454.83,-658.7"/>
</g>
<!-- 2b97fa7a&#45;0a1b&#45;4aa5&#45;aa5b&#45;80d1512f19a7 -->
<g id="node6" class="node">
<title>2b97fa7a&#45;0a1b&#45;4aa5&#45;aa5b&#45;80d1512f19a7</title>
<ellipse fill="#ffff80" stroke="black" cx="1709.33" cy="-624.82" rx="143.37" ry="22.1"/>
<text text-anchor="middle" x="1709.33" y="-617.44" font-family="Times New Roman,serif" font-size="20.00">IsLeftHandEmpty(self)</text>
</g>
<!-- 53ce8d3f&#45;3235&#45;4d01&#45;9590&#45;5dd6f61d12ba&#45;&gt;2b97fa7a&#45;0a1b&#45;4aa5&#45;aa5b&#45;80d1512f19a7 -->
<g id="edge5" class="edge">
<title>53ce8d3f&#45;3235&#45;4d01&#45;9590&#45;5dd6f61d12ba&#45;&gt;2b97fa7a&#45;0a1b&#45;4aa5&#45;aa5b&#45;80d1512f19a7</title>
<path fill="none" stroke="black" d="M1709.33,-682.68C1709.33,-675.63 1709.33,-666.9 1709.33,-658.42"/>
<polygon fill="black" stroke="black" points="1712.83,-658.7 1709.33,-648.7 1705.83,-658.7 1712.83,-658.7"/>
</g>
<!-- 3e474299&#45;0e95&#45;4de3&#45;b1b3&#45;4ca47cedbe7e -->
<g id="node7" class="node">
<title>3e474299&#45;0e95&#45;4de3&#45;b1b3&#45;4ca47cedbe7e</title>
<polygon fill="#b0ffff" stroke="black" points="1906.08,-640.44 1870.58,-640.44 1870.58,-609.19 1906.08,-609.19 1906.08,-640.44"/>
<text text-anchor="middle" x="1888.33" y="-617.44" font-family="Times New Roman,serif" font-size="20.00"> ? </text>
</g>
<!-- 53ce8d3f&#45;3235&#45;4d01&#45;9590&#45;5dd6f61d12ba&#45;&gt;3e474299&#45;0e95&#45;4de3&#45;b1b3&#45;4ca47cedbe7e -->
<g id="edge6" class="edge">
<title>53ce8d3f&#45;3235&#45;4d01&#45;9590&#45;5dd6f61d12ba&#45;&gt;3e474299&#45;0e95&#45;4de3&#45;b1b3&#45;4ca47cedbe7e</title>
<path fill="none" stroke="black" d="M1727.94,-693.52C1755.66,-687.09 1809.22,-672.96 1860.95,-646.14"/>
<polygon fill="black" stroke="black" points="1862.42,-649.32 1869.58,-641.51 1859.12,-643.15 1862.42,-649.32"/>
</g>
<!-- 02a7eb49&#45;68a2&#45;4463&#45;bf81&#45;ebb4c08061ba -->
<g id="node8" class="node">
<title>02a7eb49&#45;68a2&#45;4463&#45;bf81&#45;ebb4c08061ba</title>
<polygon fill="#b0ffff" stroke="black" points="1701.08,-566.72 1665.58,-566.72 1665.58,-535.47 1701.08,-535.47 1701.08,-566.72"/>
<text text-anchor="middle" x="1683.33" y="-543.72" font-family="Times New Roman,serif" font-size="20.00"> ? </text>
</g>
<!-- 3e474299&#45;0e95&#45;4de3&#45;b1b3&#45;4ca47cedbe7e&#45;&gt;02a7eb49&#45;68a2&#45;4463&#45;bf81&#45;ebb4c08061ba -->
<g id="edge7" class="edge">
<title>3e474299&#45;0e95&#45;4de3&#45;b1b3&#45;4ca47cedbe7e&#45;&gt;02a7eb49&#45;68a2&#45;4463&#45;bf81&#45;ebb4c08061ba</title>
<path fill="none" stroke="black" d="M1870.98,-608.71C1867.9,-606.49 1864.62,-604.39 1861.33,-602.72 1812.18,-577.74 1748.95,-563.5 1712.59,-556.83"/>
<polygon fill="black" stroke="black" points="1713.3,-553.4 1702.84,-555.11 1712.09,-560.3 1713.3,-553.4"/>
</g>
<!-- 3755bab1&#45;4b2a&#45;47fd&#45;b262&#45;bb7d9bc9d448 -->
<g id="node37" class="node">
<title>3755bab1&#45;4b2a&#45;47fd&#45;b262&#45;bb7d9bc9d448</title>
<polygon fill="#ff8080" stroke="black" points="2110.46,-566.72 2074.21,-566.72 2074.21,-535.47 2110.46,-535.47 2110.46,-566.72"/>
<text text-anchor="middle" x="2092.33" y="-543.72" font-family="Times New Roman,serif" font-size="20.00">→</text>
</g>
<!-- 3e474299&#45;0e95&#45;4de3&#45;b1b3&#45;4ca47cedbe7e&#45;&gt;3755bab1&#45;4b2a&#45;47fd&#45;b262&#45;bb7d9bc9d448 -->
<g id="edge36" class="edge">
<title>3e474299&#45;0e95&#45;4de3&#45;b1b3&#45;4ca47cedbe7e&#45;&gt;3755bab1&#45;4b2a&#45;47fd&#45;b262&#45;bb7d9bc9d448</title>
<path fill="none" stroke="black" d="M1906.44,-617.45C1941.81,-605.02 2020.37,-577.4 2063.17,-562.35"/>
<polygon fill="black" stroke="black" points="2064.28,-565.67 2072.55,-559.05 2061.96,-559.07 2064.28,-565.67"/>
</g>
<!-- 7cf782db&#45;05d7&#45;41d1&#45;a4cd&#45;6cab51916dba -->
<g id="node9" class="node">
<title>7cf782db&#45;05d7&#45;41d1&#45;a4cd&#45;6cab51916dba</title>
<polygon fill="#b0ffff" stroke="black" points="1166.08,-493 1130.58,-493 1130.58,-461.75 1166.08,-461.75 1166.08,-493"/>
<text text-anchor="middle" x="1148.33" y="-470" font-family="Times New Roman,serif" font-size="20.00"> ? </text>
</g>
<!-- 02a7eb49&#45;68a2&#45;4463&#45;bf81&#45;ebb4c08061ba&#45;&gt;7cf782db&#45;05d7&#45;41d1&#45;a4cd&#45;6cab51916dba -->
<g id="edge8" class="edge">
<title>02a7eb49&#45;68a2&#45;4463&#45;bf81&#45;ebb4c08061ba&#45;&gt;7cf782db&#45;05d7&#45;41d1&#45;a4cd&#45;6cab51916dba</title>
<path fill="none" stroke="black" d="M1665.23,-547.67C1586.72,-537.14 1275.35,-495.4 1177.75,-482.32"/>
<polygon fill="black" stroke="black" points="1178.31,-478.86 1167.94,-481 1177.38,-485.8 1178.31,-478.86"/>
</g>
<!-- 96042247&#45;9f9f&#45;4d37&#45;b036&#45;f5a57edfb844 -->
<g id="node31" class="node">
<title>96042247&#45;9f9f&#45;4d37&#45;b036&#45;f5a57edfb844</title>
<polygon fill="#ff8080" stroke="black" points="1701.46,-493 1665.21,-493 1665.21,-461.75 1701.46,-461.75 1701.46,-493"/>
<text text-anchor="middle" x="1683.33" y="-470" font-family="Times New Roman,serif" font-size="20.00">→</text>
</g>
<!-- 02a7eb49&#45;68a2&#45;4463&#45;bf81&#45;ebb4c08061ba&#45;&gt;96042247&#45;9f9f&#45;4d37&#45;b036&#45;f5a57edfb844 -->
<g id="edge30" class="edge">
<title>02a7eb49&#45;68a2&#45;4463&#45;bf81&#45;ebb4c08061ba&#45;&gt;96042247&#45;9f9f&#45;4d37&#45;b036&#45;f5a57edfb844</title>
<path fill="none" stroke="black" d="M1683.33,-535.24C1683.33,-526.39 1683.33,-514.91 1683.33,-504.58"/>
<polygon fill="black" stroke="black" points="1686.83,-504.73 1683.33,-494.73 1679.83,-504.73 1686.83,-504.73"/>
</g>
<!-- 409cf648&#45;8ca5&#45;468d&#45;a299&#45;47264895e594 -->
<g id="node10" class="node">
<title>409cf648&#45;8ca5&#45;468d&#45;a299&#45;47264895e594</title>
<polygon fill="#ff8080" stroke="black" points="731.46,-412.8 695.21,-412.8 695.21,-381.55 731.46,-381.55 731.46,-412.8"/>
<text text-anchor="middle" x="713.33" y="-389.8" font-family="Times New Roman,serif" font-size="20.00">→</text>
</g>
<!-- 7cf782db&#45;05d7&#45;41d1&#45;a4cd&#45;6cab51916dba&#45;&gt;409cf648&#45;8ca5&#45;468d&#45;a299&#45;47264895e594 -->
<g id="edge9" class="edge">
<title>7cf782db&#45;05d7&#45;41d1&#45;a4cd&#45;6cab51916dba&#45;&gt;409cf648&#45;8ca5&#45;468d&#45;a299&#45;47264895e594</title>
<path fill="none" stroke="black" d="M1130.2,-473.11C1062.76,-460.99 826.12,-418.45 742.71,-403.46"/>
<polygon fill="black" stroke="black" points="743.5,-400.05 733.04,-401.72 742.26,-406.94 743.5,-400.05"/>
</g>
<!-- 29bce9ed&#45;44c8&#45;4db5&#45;ad58&#45;db6535016709 -->
<g id="node26" class="node">
<title>29bce9ed&#45;44c8&#45;4db5&#45;ad58&#45;db6535016709</title>
<polygon fill="#ff8080" stroke="black" points="1166.46,-412.8 1130.21,-412.8 1130.21,-381.55 1166.46,-381.55 1166.46,-412.8"/>
<text text-anchor="middle" x="1148.33" y="-389.8" font-family="Times New Roman,serif" font-size="20.00">→</text>
</g>
<!-- 7cf782db&#45;05d7&#45;41d1&#45;a4cd&#45;6cab51916dba&#45;&gt;29bce9ed&#45;44c8&#45;4db5&#45;ad58&#45;db6535016709 -->
<g id="edge25" class="edge">
<title>7cf782db&#45;05d7&#45;41d1&#45;a4cd&#45;6cab51916dba&#45;&gt;29bce9ed&#45;44c8&#45;4db5&#45;ad58&#45;db6535016709</title>
<path fill="none" stroke="black" d="M1148.33,-461.3C1148.33,-450.91 1148.33,-436.84 1148.33,-424.61"/>
<polygon fill="black" stroke="black" points="1151.83,-424.72 1148.33,-414.72 1144.83,-424.72 1151.83,-424.72"/>
</g>
<!-- e6fecd9a&#45;b994&#45;4639&#45;981a&#45;6de71725402b -->
<g id="node11" class="node">
<title>e6fecd9a&#45;b994&#45;4639&#45;981a&#45;6de71725402b</title>
<ellipse fill="#ffff80" stroke="black" cx="563.33" cy="-316.99" rx="114.73" ry="22.1"/>
<text text-anchor="middle" x="563.33" y="-309.61" font-family="Times New Roman,serif" font-size="20.00">IsNear(self,fridge)</text>
</g>
<!-- 409cf648&#45;8ca5&#45;468d&#45;a299&#45;47264895e594&#45;&gt;e6fecd9a&#45;b994&#45;4639&#45;981a&#45;6de71725402b -->
<g id="edge10" class="edge">
<title>409cf648&#45;8ca5&#45;468d&#45;a299&#45;47264895e594&#45;&gt;e6fecd9a&#45;b994&#45;4639&#45;981a&#45;6de71725402b</title>
<path fill="none" stroke="black" d="M694.94,-386.59C674.46,-375.91 640.5,-358.21 612.22,-343.47"/>
<polygon fill="black" stroke="black" points="613.91,-340.4 603.43,-338.89 610.68,-346.61 613.91,-340.4"/>
</g>
<!-- a756b3e8&#45;2661&#45;45ce&#45;a1a4&#45;adf3da02517d -->
<g id="node12" class="node">
<title>a756b3e8&#45;2661&#45;45ce&#45;a1a4&#45;adf3da02517d</title>
<polygon fill="#b0ffff" stroke="black" points="731.08,-332.61 695.58,-332.61 695.58,-301.36 731.08,-301.36 731.08,-332.61"/>
<text text-anchor="middle" x="713.33" y="-309.61" font-family="Times New Roman,serif" font-size="20.00"> ? </text>
</g>
<!-- 409cf648&#45;8ca5&#45;468d&#45;a299&#45;47264895e594&#45;&gt;a756b3e8&#45;2661&#45;45ce&#45;a1a4&#45;adf3da02517d -->
<g id="edge11" class="edge">
<title>409cf648&#45;8ca5&#45;468d&#45;a299&#45;47264895e594&#45;&gt;a756b3e8&#45;2661&#45;45ce&#45;a1a4&#45;adf3da02517d</title>
<path fill="none" stroke="black" d="M713.33,-381.1C713.33,-370.72 713.33,-356.64 713.33,-344.42"/>
<polygon fill="black" stroke="black" points="716.83,-344.53 713.33,-334.53 709.83,-344.53 716.83,-344.53"/>
</g>
<!-- dda8a45f&#45;a275&#45;4716&#45;a06d&#45;5e5094a4fa9b -->
<g id="node13" class="node">
<title>dda8a45f&#45;a275&#45;4716&#45;a06d&#45;5e5094a4fa9b</title>
<polygon fill="#ff8080" stroke="black" points="477.46,-258.89 441.21,-258.89 441.21,-227.64 477.46,-227.64 477.46,-258.89"/>
<text text-anchor="middle" x="459.33" y="-235.89" font-family="Times New Roman,serif" font-size="20.00">→</text>
</g>
<!-- a756b3e8&#45;2661&#45;45ce&#45;a1a4&#45;adf3da02517d&#45;&gt;dda8a45f&#45;a275&#45;4716&#45;a06d&#45;5e5094a4fa9b -->
<g id="edge12" class="edge">
<title>a756b3e8&#45;2661&#45;45ce&#45;a1a4&#45;adf3da02517d&#45;&gt;dda8a45f&#45;a275&#45;4716&#45;a06d&#45;5e5094a4fa9b</title>
<path fill="none" stroke="black" d="M697.05,-300.92C693.98,-298.63 690.68,-296.51 687.33,-294.89 620.95,-262.81 533.85,-250.76 488.94,-246.47"/>
<polygon fill="black" stroke="black" points="489.48,-243.01 479.21,-245.61 488.87,-249.98 489.48,-243.01"/>
</g>
<!-- 8e2d20b9&#45;86bf&#45;40ec&#45;81f8&#45;040df2ce0e7e -->
<g id="node22" class="node">
<title>8e2d20b9&#45;86bf&#45;40ec&#45;81f8&#45;040df2ce0e7e</title>
<polygon fill="#ff8080" stroke="black" points="838.46,-258.89 802.21,-258.89 802.21,-227.64 838.46,-227.64 838.46,-258.89"/>
<text text-anchor="middle" x="820.33" y="-235.89" font-family="Times New Roman,serif" font-size="20.00">→</text>
</g>
<!-- a756b3e8&#45;2661&#45;45ce&#45;a1a4&#45;adf3da02517d&#45;&gt;8e2d20b9&#45;86bf&#45;40ec&#45;81f8&#45;040df2ce0e7e -->
<g id="edge21" class="edge">
<title>a756b3e8&#45;2661&#45;45ce&#45;a1a4&#45;adf3da02517d&#45;&gt;8e2d20b9&#45;86bf&#45;40ec&#45;81f8&#45;040df2ce0e7e</title>
<path fill="none" stroke="black" d="M731.45,-301.44C734.38,-299.19 737.42,-296.94 740.33,-294.89 757.2,-283.01 776.76,-270.61 792.31,-261.05"/>
<polygon fill="black" stroke="black" points="793.88,-264.2 800.6,-256.01 790.23,-258.22 793.88,-264.2"/>
</g>
<!-- 908e9490&#45;c219&#45;488c&#45;9ff9&#45;75b61a735104 -->
<g id="node14" class="node">
<title>908e9490&#45;c219&#45;488c&#45;9ff9&#45;75b61a735104</title>
<ellipse fill="#ffff80" stroke="black" cx="329.33" cy="-169.54" rx="94.58" ry="22.1"/>
<text text-anchor="middle" x="329.33" y="-162.17" font-family="Times New Roman,serif" font-size="20.00">IsOpen(fridge)</text>
</g>
<!-- dda8a45f&#45;a275&#45;4716&#45;a06d&#45;5e5094a4fa9b&#45;&gt;908e9490&#45;c219&#45;488c&#45;9ff9&#45;75b61a735104 -->
<g id="edge13" class="edge">
<title>dda8a45f&#45;a275&#45;4716&#45;a06d&#45;5e5094a4fa9b&#45;&gt;908e9490&#45;c219&#45;488c&#45;9ff9&#45;75b61a735104</title>
<path fill="none" stroke="black" d="M440.98,-232.14C423.91,-222.72 397.77,-208.3 375.07,-195.77"/>
<polygon fill="black" stroke="black" points="377.03,-192.86 366.59,-191.09 373.65,-198.99 377.03,-192.86"/>
</g>
<!-- 0df5d3f2&#45;2511&#45;4b80&#45;873e&#45;cd586285e575 -->
<g id="node15" class="node">
<title>0df5d3f2&#45;2511&#45;4b80&#45;873e&#45;cd586285e575</title>
<polygon fill="#b0ffff" stroke="black" points="477.08,-185.17 441.58,-185.17 441.58,-153.92 477.08,-153.92 477.08,-185.17"/>
<text text-anchor="middle" x="459.33" y="-162.17" font-family="Times New Roman,serif" font-size="20.00"> ? </text>
</g>
<!-- dda8a45f&#45;a275&#45;4716&#45;a06d&#45;5e5094a4fa9b&#45;&gt;0df5d3f2&#45;2511&#45;4b80&#45;873e&#45;cd586285e575 -->
<g id="edge14" class="edge">
<title>dda8a45f&#45;a275&#45;4716&#45;a06d&#45;5e5094a4fa9b&#45;&gt;0df5d3f2&#45;2511&#45;4b80&#45;873e&#45;cd586285e575</title>
<path fill="none" stroke="black" d="M459.33,-227.4C459.33,-218.56 459.33,-207.07 459.33,-196.75"/>
<polygon fill="black" stroke="black" points="462.83,-196.9 459.33,-186.9 455.83,-196.9 462.83,-196.9"/>
</g>
<!-- 0210fb3d&#45;6095&#45;4e44&#45;81c0&#45;b00bb2289f85 -->
<g id="node16" class="node">
<title>0210fb3d&#45;6095&#45;4e44&#45;81c0&#45;b00bb2289f85</title>
<polygon fill="#ff8080" stroke="black" points="348.46,-111.44 312.21,-111.44 312.21,-80.19 348.46,-80.19 348.46,-111.44"/>
<text text-anchor="middle" x="330.33" y="-88.44" font-family="Times New Roman,serif" font-size="20.00">→</text>
</g>
<!-- 0df5d3f2&#45;2511&#45;4b80&#45;873e&#45;cd586285e575&#45;&gt;0210fb3d&#45;6095&#45;4e44&#45;81c0&#45;b00bb2289f85 -->
<g id="edge15" class="edge">
<title>0df5d3f2&#45;2511&#45;4b80&#45;873e&#45;cd586285e575&#45;&gt;0210fb3d&#45;6095&#45;4e44&#45;81c0&#45;b00bb2289f85</title>
<path fill="none" stroke="black" d="M441.83,-153.46C439.06,-151.34 436.17,-149.26 433.33,-147.44 409.47,-132.17 380.33,-118.24 359.15,-108.88"/>
<polygon fill="black" stroke="black" points="360.82,-105.79 350.25,-105.02 358.03,-112.21 360.82,-105.79"/>
</g>
<!-- c4f2aaba&#45;63d1&#45;4265&#45;8bd1&#45;a67a314d05c0 -->
<g id="node19" class="node">
<title>c4f2aaba&#45;63d1&#45;4265&#45;8bd1&#45;a67a314d05c0</title>
<polygon fill="#ff8080" stroke="black" points="606.46,-111.44 570.21,-111.44 570.21,-80.19 606.46,-80.19 606.46,-111.44"/>
<text text-anchor="middle" x="588.33" y="-88.44" font-family="Times New Roman,serif" font-size="20.00">→</text>
</g>
<!-- 0df5d3f2&#45;2511&#45;4b80&#45;873e&#45;cd586285e575&#45;&gt;c4f2aaba&#45;63d1&#45;4265&#45;8bd1&#45;a67a314d05c0 -->
<g id="edge18" class="edge">
<title>0df5d3f2&#45;2511&#45;4b80&#45;873e&#45;cd586285e575&#45;&gt;c4f2aaba&#45;63d1&#45;4265&#45;8bd1&#45;a67a314d05c0</title>
<path fill="none" stroke="black" d="M477.57,-153.5C480.43,-151.37 483.42,-149.28 486.33,-147.44 510.02,-132.53 538.7,-118.63 559.61,-109.18"/>
<polygon fill="black" stroke="black" points="560.95,-112.42 568.67,-105.16 558.11,-106.02 560.95,-112.42"/>
</g>
<!-- 9e38d0b5&#45;8917&#45;40e9&#45;99db&#45;5145b052a2e4 -->
<g id="node17" class="node">
<title>9e38d0b5&#45;8917&#45;40e9&#45;99db&#45;5145b052a2e4</title>
<ellipse fill="#ffff80" stroke="black" cx="125.33" cy="-22.1" rx="125.33" ry="22.1"/>
<text text-anchor="middle" x="125.33" y="-14.72" font-family="Times New Roman,serif" font-size="20.00">IsIn(bananas,fridge)</text>
</g>
<!-- 0210fb3d&#45;6095&#45;4e44&#45;81c0&#45;b00bb2289f85&#45;&gt;9e38d0b5&#45;8917&#45;40e9&#45;99db&#45;5145b052a2e4 -->
<g id="edge16" class="edge">
<title>0210fb3d&#45;6095&#45;4e44&#45;81c0&#45;b00bb2289f85&#45;&gt;9e38d0b5&#45;8917&#45;40e9&#45;99db&#45;5145b052a2e4</title>
<path fill="none" stroke="black" d="M311.78,-88.33C284.76,-78.87 233.23,-60.84 191.17,-46.13"/>
<polygon fill="black" stroke="black" points="192.45,-42.87 181.86,-42.87 190.14,-49.48 192.45,-42.87"/>
</g>
<!-- b7ab8a09&#45;894b&#45;4450&#45;afbd&#45;1bc2d532ec95 -->
<g id="node18" class="node">
<title>b7ab8a09&#45;894b&#45;4450&#45;afbd&#45;1bc2d532ec95</title>
<polygon fill="lightgreen" stroke="black" points="391.58,-40.1 269.08,-40.1 269.08,-4.1 391.58,-4.1 391.58,-40.1"/>
<text text-anchor="middle" x="330.33" y="-14.72" font-family="Times New Roman,serif" font-size="20.00">Close(fridge)</text>
</g>
<!-- 0210fb3d&#45;6095&#45;4e44&#45;81c0&#45;b00bb2289f85&#45;&gt;b7ab8a09&#45;894b&#45;4450&#45;afbd&#45;1bc2d532ec95 -->
<g id="edge17" class="edge">
<title>0210fb3d&#45;6095&#45;4e44&#45;81c0&#45;b00bb2289f85&#45;&gt;b7ab8a09&#45;894b&#45;4450&#45;afbd&#45;1bc2d532ec95</title>
<path fill="none" stroke="black" d="M330.33,-79.96C330.33,-71.79 330.33,-61.38 330.33,-51.7"/>
<polygon fill="black" stroke="black" points="333.83,-51.98 330.33,-41.98 326.83,-51.98 333.83,-51.98"/>
</g>
<!-- c15dc466&#45;68c6&#45;4481&#45;8893&#45;abc975adacd9 -->
<g id="node20" class="node">
<title>c15dc466&#45;68c6&#45;4481&#45;8893&#45;abc975adacd9</title>
<ellipse fill="#ffff80" stroke="black" cx="588.33" cy="-22.1" rx="178.9" ry="22.1"/>
<text text-anchor="middle" x="588.33" y="-14.72" font-family="Times New Roman,serif" font-size="20.00">IsRightHolding(self,bananas)</text>
</g>
<!-- c4f2aaba&#45;63d1&#45;4265&#45;8bd1&#45;a67a314d05c0&#45;&gt;c15dc466&#45;68c6&#45;4481&#45;8893&#45;abc975adacd9 -->
<g id="edge19" class="edge">
<title>c4f2aaba&#45;63d1&#45;4265&#45;8bd1&#45;a67a314d05c0&#45;&gt;c15dc466&#45;68c6&#45;4481&#45;8893&#45;abc975adacd9</title>
<path fill="none" stroke="black" d="M588.33,-79.96C588.33,-72.91 588.33,-64.18 588.33,-55.7"/>
<polygon fill="black" stroke="black" points="591.83,-55.98 588.33,-45.98 584.83,-55.98 591.83,-55.98"/>
</g>
<!-- 2e60f7d2&#45;c19b&#45;4a46&#45;b8cc&#45;7e50dc978f03 -->
<g id="node21" class="node">
<title>2e60f7d2&#45;c19b&#45;4a46&#45;b8cc&#45;7e50dc978f03</title>
<polygon fill="lightgreen" stroke="black" points="1021.21,-40.1 785.46,-40.1 785.46,-4.1 1021.21,-4.1 1021.21,-40.1"/>
<text text-anchor="middle" x="903.33" y="-14.72" font-family="Times New Roman,serif" font-size="20.00">RightPutIn(bananas,fridge)</text>
</g>
<!-- c4f2aaba&#45;63d1&#45;4265&#45;8bd1&#45;a67a314d05c0&#45;&gt;2e60f7d2&#45;c19b&#45;4a46&#45;b8cc&#45;7e50dc978f03 -->
<g id="edge20" class="edge">
<title>c4f2aaba&#45;63d1&#45;4265&#45;8bd1&#45;a67a314d05c0&#45;&gt;2e60f7d2&#45;c19b&#45;4a46&#45;b8cc&#45;7e50dc978f03</title>
<path fill="none" stroke="black" d="M606.63,-90.65C646.47,-81.58 743.3,-59.54 815.57,-43.08"/>
<polygon fill="black" stroke="black" points="816.05,-46.56 825.02,-40.93 814.49,-39.74 816.05,-46.56"/>
</g>
<!-- 2038b550&#45;e53a&#45;49bf&#45;977a&#45;f3987dcc41bc -->
<g id="node23" class="node">
<title>2038b550&#45;e53a&#45;49bf&#45;977a&#45;f3987dcc41bc</title>
<ellipse fill="#ffff80" stroke="black" cx="674.33" cy="-169.54" rx="178.9" ry="22.1"/>
<text text-anchor="middle" x="674.33" y="-162.17" font-family="Times New Roman,serif" font-size="20.00">IsRightHolding(self,bananas)</text>
</g>
<!-- 8e2d20b9&#45;86bf&#45;40ec&#45;81f8&#45;040df2ce0e7e&#45;&gt;2038b550&#45;e53a&#45;49bf&#45;977a&#45;f3987dcc41bc -->
<g id="edge22" class="edge">
<title>8e2d20b9&#45;86bf&#45;40ec&#45;81f8&#45;040df2ce0e7e&#45;&gt;2038b550&#45;e53a&#45;49bf&#45;977a&#45;f3987dcc41bc</title>
<path fill="none" stroke="black" d="M801.84,-233.18C783.08,-223.96 753.15,-209.26 727.01,-196.42"/>
<polygon fill="black" stroke="black" points="728.71,-193.35 718.19,-192.08 725.62,-199.63 728.71,-193.35"/>
</g>
<!-- 019e9cac&#45;3019&#45;4fef&#45;98c1&#45;f92417d71049 -->
<g id="node24" class="node">
<title>019e9cac&#45;3019&#45;4fef&#45;98c1&#45;f92417d71049</title>
<ellipse fill="#ffff80" stroke="black" cx="967.33" cy="-169.54" rx="96.17" ry="22.1"/>
<text text-anchor="middle" x="967.33" y="-162.17" font-family="Times New Roman,serif" font-size="20.00">IsClose(fridge)</text>
</g>
<!-- 8e2d20b9&#45;86bf&#45;40ec&#45;81f8&#45;040df2ce0e7e&#45;&gt;019e9cac&#45;3019&#45;4fef&#45;98c1&#45;f92417d71049 -->
<g id="edge23" class="edge">
<title>8e2d20b9&#45;86bf&#45;40ec&#45;81f8&#45;040df2ce0e7e&#45;&gt;019e9cac&#45;3019&#45;4fef&#45;98c1&#45;f92417d71049</title>
<path fill="none" stroke="black" d="M838.95,-233.18C858.54,-223.62 890.23,-208.16 917.21,-195"/>
<polygon fill="black" stroke="black" points="918.48,-198.27 925.93,-190.74 915.41,-191.98 918.48,-198.27"/>
</g>
<!-- 66c49dc1&#45;3f7e&#45;41f0&#45;9b37&#45;eec45415e84c -->
<g id="node25" class="node">
<title>66c49dc1&#45;3f7e&#45;41f0&#45;9b37&#45;eec45415e84c</title>
<polygon fill="lightgreen" stroke="black" points="1201.46,-187.54 1081.21,-187.54 1081.21,-151.54 1201.46,-151.54 1201.46,-187.54"/>
<text text-anchor="middle" x="1141.33" y="-162.17" font-family="Times New Roman,serif" font-size="20.00">Open(fridge)</text>
</g>
<!-- 8e2d20b9&#45;86bf&#45;40ec&#45;81f8&#45;040df2ce0e7e&#45;&gt;66c49dc1&#45;3f7e&#45;41f0&#45;9b37&#45;eec45415e84c -->
<g id="edge24" class="edge">
<title>8e2d20b9&#45;86bf&#45;40ec&#45;81f8&#45;040df2ce0e7e&#45;&gt;66c49dc1&#45;3f7e&#45;41f0&#45;9b37&#45;eec45415e84c</title>
<path fill="none" stroke="black" d="M838.81,-239.19C880.67,-232.1 985.81,-213.5 1072.33,-191.64 1073.32,-191.39 1074.31,-191.14 1075.3,-190.88"/>
<polygon fill="black" stroke="black" points="1075.91,-194.34 1084.65,-188.35 1074.08,-187.58 1075.91,-194.34"/>
</g>
<!-- d74036b4&#45;24d7&#45;475c&#45;aa2f&#45;d8ae57e7da31 -->
<g id="node27" class="node">
<title>d74036b4&#45;24d7&#45;475c&#45;aa2f&#45;d8ae57e7da31</title>
<ellipse fill="#ffff80" stroke="black" cx="850.33" cy="-316.99" rx="101.47" ry="22.1"/>
<text text-anchor="middle" x="850.33" y="-309.61" font-family="Times New Roman,serif" font-size="20.00">IsStanding(self)</text>
</g>
<!-- 29bce9ed&#45;44c8&#45;4db5&#45;ad58&#45;db6535016709&#45;&gt;d74036b4&#45;24d7&#45;475c&#45;aa2f&#45;d8ae57e7da31 -->
<g id="edge26" class="edge">
<title>29bce9ed&#45;44c8&#45;4db5&#45;ad58&#45;db6535016709&#45;&gt;d74036b4&#45;24d7&#45;475c&#45;aa2f&#45;d8ae57e7da31</title>
<path fill="none" stroke="black" d="M1130.14,-391.41C1090.2,-380.92 992.93,-355.4 924.34,-337.4"/>
<polygon fill="black" stroke="black" points="925.62,-334.12 915.06,-334.97 923.84,-340.89 925.62,-334.12"/>
</g>
<!-- 48eb4b3e&#45;0455&#45;48c8&#45;ae09&#45;7bf0c20f5763 -->
<g id="node28" class="node">
<title>48eb4b3e&#45;0455&#45;48c8&#45;ae09&#45;7bf0c20f5763</title>
<ellipse fill="#ffff80" stroke="black" cx="1148.33" cy="-316.99" rx="178.9" ry="22.1"/>
<text text-anchor="middle" x="1148.33" y="-309.61" font-family="Times New Roman,serif" font-size="20.00">IsRightHolding(self,bananas)</text>
</g>
<!-- 29bce9ed&#45;44c8&#45;4db5&#45;ad58&#45;db6535016709&#45;&gt;48eb4b3e&#45;0455&#45;48c8&#45;ae09&#45;7bf0c20f5763 -->
<g id="edge27" class="edge">
<title>29bce9ed&#45;44c8&#45;4db5&#45;ad58&#45;db6535016709&#45;&gt;48eb4b3e&#45;0455&#45;48c8&#45;ae09&#45;7bf0c20f5763</title>
<path fill="none" stroke="black" d="M1148.33,-381.1C1148.33,-372.53 1148.33,-361.43 1148.33,-350.94"/>
<polygon fill="black" stroke="black" points="1151.83,-351.03 1148.33,-341.03 1144.83,-351.03 1151.83,-351.03"/>
</g>
<!-- 0c587c64&#45;a208&#45;4196&#45;9ec3&#45;fb0ac82af8c0 -->
<g id="node29" class="node">
<title>0c587c64&#45;a208&#45;4196&#45;9ec3&#45;fb0ac82af8c0</title>
<ellipse fill="#ffff80" stroke="black" cx="1441.33" cy="-316.99" rx="96.17" ry="22.1"/>
<text text-anchor="middle" x="1441.33" y="-309.61" font-family="Times New Roman,serif" font-size="20.00">IsClose(fridge)</text>
</g>
<!-- 29bce9ed&#45;44c8&#45;4db5&#45;ad58&#45;db6535016709&#45;&gt;0c587c64&#45;a208&#45;4196&#45;9ec3&#45;fb0ac82af8c0 -->
<g id="edge28" class="edge">
<title>29bce9ed&#45;44c8&#45;4db5&#45;ad58&#45;db6535016709&#45;&gt;0c587c64&#45;a208&#45;4196&#45;9ec3&#45;fb0ac82af8c0</title>
<path fill="none" stroke="black" d="M1165.98,-381.11C1169.27,-378.83 1172.79,-376.7 1176.33,-375.08 1184.85,-371.19 1285.22,-350.06 1359.93,-334.64"/>
<polygon fill="black" stroke="black" points="1360.19,-338.16 1369.27,-332.71 1358.77,-331.31 1360.19,-338.16"/>
</g>
<!-- 982a7e8d&#45;9abe&#45;40af&#45;95e4&#45;eb920fe0682f -->
<g id="node30" class="node">
<title>982a7e8d&#45;9abe&#45;40af&#45;95e4&#45;eb920fe0682f</title>
<polygon fill="lightgreen" stroke="black" points="1675.08,-334.99 1555.58,-334.99 1555.58,-298.99 1675.08,-298.99 1675.08,-334.99"/>
<text text-anchor="middle" x="1615.33" y="-309.61" font-family="Times New Roman,serif" font-size="20.00">Walk(fridge)</text>
</g>
<!-- 29bce9ed&#45;44c8&#45;4db5&#45;ad58&#45;db6535016709&#45;&gt;982a7e8d&#45;9abe&#45;40af&#45;95e4&#45;eb920fe0682f -->
<g id="edge29" class="edge">
<title>29bce9ed&#45;44c8&#45;4db5&#45;ad58&#45;db6535016709&#45;&gt;982a7e8d&#45;9abe&#45;40af&#45;95e4&#45;eb920fe0682f</title>
<path fill="none" stroke="black" d="M1165.22,-381.19C1168.69,-378.78 1172.48,-376.58 1176.33,-375.08 1330.29,-315.13 1384.3,-371.4 1546.33,-339.08 1547.95,-338.76 1549.58,-338.42 1551.21,-338.05"/>
<polygon fill="black" stroke="black" points="1551.75,-341.53 1560.64,-335.77 1550.1,-334.72 1551.75,-341.53"/>
</g>
<!-- de1ec32c&#45;9170&#45;45f2&#45;b0b8&#45;e620c40eb29e -->
<g id="node32" class="node">
<title>de1ec32c&#45;9170&#45;45f2&#45;b0b8&#45;e620c40eb29e</title>
<ellipse fill="#ffff80" stroke="black" cx="1286.33" cy="-397.18" rx="101.47" ry="22.1"/>
<text text-anchor="middle" x="1286.33" y="-389.8" font-family="Times New Roman,serif" font-size="20.00">IsStanding(self)</text>
</g>
<!-- 96042247&#45;9f9f&#45;4d37&#45;b036&#45;f5a57edfb844&#45;&gt;de1ec32c&#45;9170&#45;45f2&#45;b0b8&#45;e620c40eb29e -->
<g id="edge31" class="edge">
<title>96042247&#45;9f9f&#45;4d37&#45;b036&#45;f5a57edfb844&#45;&gt;de1ec32c&#45;9170&#45;45f2&#45;b0b8&#45;e620c40eb29e</title>
<path fill="none" stroke="black" d="M1664.72,-472.71C1613.11,-462.54 1465.76,-433.52 1370.9,-414.84"/>
<polygon fill="black" stroke="black" points="1371.86,-411.46 1361.38,-412.96 1370.51,-418.33 1371.86,-411.46"/>
</g>
<!-- 8dfdc4c0&#45;d6ca&#45;4777&#45;ac93&#45;fb2b39db038b -->
<g id="node33" class="node">
<title>8dfdc4c0&#45;d6ca&#45;4777&#45;ac93&#45;fb2b39db038b</title>
<ellipse fill="#ffff80" stroke="black" cx="1534.33" cy="-397.18" rx="128.52" ry="22.1"/>
<text text-anchor="middle" x="1534.33" y="-389.8" font-family="Times New Roman,serif" font-size="20.00">IsNear(self,bananas)</text>
</g>
<!-- 96042247&#45;9f9f&#45;4d37&#45;b036&#45;f5a57edfb844&#45;&gt;8dfdc4c0&#45;d6ca&#45;4777&#45;ac93&#45;fb2b39db038b -->
<g id="edge32" class="edge">
<title>96042247&#45;9f9f&#45;4d37&#45;b036&#45;f5a57edfb844&#45;&gt;8dfdc4c0&#45;d6ca&#45;4777&#45;ac93&#45;fb2b39db038b</title>
<path fill="none" stroke="black" d="M1664.76,-466.63C1644.48,-455.98 1611.15,-438.49 1583.26,-423.86"/>
<polygon fill="black" stroke="black" points="1585.09,-420.86 1574.61,-419.31 1581.84,-427.06 1585.09,-420.86"/>
</g>
<!-- 37109a50&#45;99ea&#45;4286&#45;b1f3&#45;b5744fd07e35 -->
<g id="node34" class="node">
<title>37109a50&#45;99ea&#45;4286&#45;b1f3&#45;b5744fd07e35</title>
<ellipse fill="#ffff80" stroke="black" cx="1832.33" cy="-397.18" rx="151.32" ry="22.1"/>
<text text-anchor="middle" x="1832.33" y="-389.8" font-family="Times New Roman,serif" font-size="20.00">IsRightHandEmpty(self)</text>
</g>
<!-- 96042247&#45;9f9f&#45;4d37&#45;b036&#45;f5a57edfb844&#45;&gt;37109a50&#45;99ea&#45;4286&#45;b1f3&#45;b5744fd07e35 -->
<g id="edge33" class="edge">
<title>96042247&#45;9f9f&#45;4d37&#45;b036&#45;f5a57edfb844&#45;&gt;37109a50&#45;99ea&#45;4286&#45;b1f3&#45;b5744fd07e35</title>
<path fill="none" stroke="black" d="M1701.94,-461.53C1705.01,-459.33 1708.21,-457.16 1711.33,-455.28 1730.81,-443.52 1753.09,-432.4 1773.18,-423.15"/>
<polygon fill="black" stroke="black" points="1774.42,-426.43 1782.08,-419.12 1771.53,-420.06 1774.42,-426.43"/>
</g>
<!-- e6e63ed5&#45;1c48&#45;40c4&#45;b3da&#45;1869588e35c2 -->
<g id="node35" class="node">
<title>e6e63ed5&#45;1c48&#45;40c4&#45;b3da&#45;1869588e35c2</title>
<ellipse fill="#ffff80" stroke="black" cx="2097.33" cy="-397.18" rx="96.17" ry="22.1"/>
<text text-anchor="middle" x="2097.33" y="-389.8" font-family="Times New Roman,serif" font-size="20.00">IsClose(fridge)</text>
</g>
<!-- 96042247&#45;9f9f&#45;4d37&#45;b036&#45;f5a57edfb844&#45;&gt;e6e63ed5&#45;1c48&#45;40c4&#45;b3da&#45;1869588e35c2 -->
<g id="edge34" class="edge">
<title>96042247&#45;9f9f&#45;4d37&#45;b036&#45;f5a57edfb844&#45;&gt;e6e63ed5&#45;1c48&#45;40c4&#45;b3da&#45;1869588e35c2</title>
<path fill="none" stroke="black" d="M1700.56,-461.26C1703.95,-458.93 1707.61,-456.79 1711.33,-455.28 1827.95,-407.81 1868.09,-439.69 1992.33,-419.28 2000.28,-417.97 2008.54,-416.5 2016.79,-414.97"/>
<polygon fill="black" stroke="black" points="2017.33,-418.42 2026.5,-413.12 2016.03,-411.55 2017.33,-418.42"/>
</g>
<!-- 9f839444&#45;0b26&#45;4152&#45;b5bb&#45;7080ea74f1de -->
<g id="node36" class="node">
<title>9f839444&#45;0b26&#45;4152&#45;b5bb&#45;7080ea74f1de</title>
<polygon fill="lightgreen" stroke="black" points="2391.46,-415.18 2211.21,-415.18 2211.21,-379.18 2391.46,-379.18 2391.46,-415.18"/>
<text text-anchor="middle" x="2301.33" y="-389.8" font-family="Times New Roman,serif" font-size="20.00">RightGrab(bananas)</text>
</g>
<!-- 96042247&#45;9f9f&#45;4d37&#45;b036&#45;f5a57edfb844&#45;&gt;9f839444&#45;0b26&#45;4152&#45;b5bb&#45;7080ea74f1de -->
<g id="edge35" class="edge">
<title>96042247&#45;9f9f&#45;4d37&#45;b036&#45;f5a57edfb844&#45;&gt;9f839444&#45;0b26&#45;4152&#45;b5bb&#45;7080ea74f1de</title>
<path fill="none" stroke="black" d="M1700.19,-461.31C1703.67,-458.9 1707.46,-456.73 1711.33,-455.28 1813.75,-416.79 2094.03,-434.71 2202.33,-419.28 2205.9,-418.77 2209.53,-418.21 2213.19,-417.6"/>
<polygon fill="black" stroke="black" points="2213.49,-421.1 2222.74,-415.94 2212.29,-414.21 2213.49,-421.1"/>
</g>
<!-- 1ba47fe9&#45;9e1f&#45;4231&#45;980d&#45;634ba660061c -->
<g id="node38" class="node">
<title>1ba47fe9&#45;9e1f&#45;4231&#45;980d&#45;634ba660061c</title>
<ellipse fill="#ffff80" stroke="black" cx="1821.33" cy="-477.37" rx="101.47" ry="22.1"/>
<text text-anchor="middle" x="1821.33" y="-470" font-family="Times New Roman,serif" font-size="20.00">IsStanding(self)</text>
</g>
<!-- 3755bab1&#45;4b2a&#45;47fd&#45;b262&#45;bb7d9bc9d448&#45;&gt;1ba47fe9&#45;9e1f&#45;4231&#45;980d&#45;634ba660061c -->
<g id="edge37" class="edge">
<title>3755bab1&#45;4b2a&#45;47fd&#45;b262&#45;bb7d9bc9d448&#45;&gt;1ba47fe9&#45;9e1f&#45;4231&#45;980d&#45;634ba660061c</title>
<path fill="none" stroke="black" d="M2074.13,-545.28C2038.21,-535.77 1956.42,-514.13 1895.54,-498.01"/>
<polygon fill="black" stroke="black" points="1896.46,-494.64 1885.9,-495.46 1894.67,-501.4 1896.46,-494.64"/>
</g>
<!-- 9d755d9c&#45;c64f&#45;4e4a&#45;ac99&#45;11de615f58c1 -->
<g id="node39" class="node">
<title>9d755d9c&#45;c64f&#45;4e4a&#45;ac99&#45;11de615f58c1</title>
<ellipse fill="#ffff80" stroke="black" cx="2092.33" cy="-477.37" rx="151.32" ry="22.1"/>
<text text-anchor="middle" x="2092.33" y="-470" font-family="Times New Roman,serif" font-size="20.00">IsRightHandEmpty(self)</text>
</g>
<!-- 3755bab1&#45;4b2a&#45;47fd&#45;b262&#45;bb7d9bc9d448&#45;&gt;9d755d9c&#45;c64f&#45;4e4a&#45;ac99&#45;11de615f58c1 -->
<g id="edge38" class="edge">
<title>3755bab1&#45;4b2a&#45;47fd&#45;b262&#45;bb7d9bc9d448&#45;&gt;9d755d9c&#45;c64f&#45;4e4a&#45;ac99&#45;11de615f58c1</title>
<path fill="none" stroke="black" d="M2092.33,-535.24C2092.33,-528.18 2092.33,-519.46 2092.33,-510.98"/>
<polygon fill="black" stroke="black" points="2095.83,-511.26 2092.33,-501.26 2088.83,-511.26 2095.83,-511.26"/>
</g>
<!-- a4c84ddb&#45;88b9&#45;4721&#45;aa0e&#45;7af461400cb8 -->
<g id="node40" class="node">
<title>a4c84ddb&#45;88b9&#45;4721&#45;aa0e&#45;7af461400cb8</title>
<ellipse fill="#ffff80" stroke="black" cx="2357.33" cy="-477.37" rx="96.17" ry="22.1"/>
<text text-anchor="middle" x="2357.33" y="-470" font-family="Times New Roman,serif" font-size="20.00">IsClose(fridge)</text>
</g>
<!-- 3755bab1&#45;4b2a&#45;47fd&#45;b262&#45;bb7d9bc9d448&#45;&gt;a4c84ddb&#45;88b9&#45;4721&#45;aa0e&#45;7af461400cb8 -->
<g id="edge39" class="edge">
<title>3755bab1&#45;4b2a&#45;47fd&#45;b262&#45;bb7d9bc9d448&#45;&gt;a4c84ddb&#45;88b9&#45;4721&#45;aa0e&#45;7af461400cb8</title>
<path fill="none" stroke="black" d="M2110.55,-545.17C2146.05,-535.56 2226.22,-513.86 2285.61,-497.79"/>
<polygon fill="black" stroke="black" points="2286.24,-501.24 2294.98,-495.25 2284.41,-494.48 2286.24,-501.24"/>
</g>
<!-- fcf99e44&#45;4e64&#45;4f8c&#45;b8b6&#45;b41269265474 -->
<g id="node41" class="node">
<title>fcf99e44&#45;4e64&#45;4f8c&#45;b8b6&#45;b41269265474</title>
<polygon fill="lightgreen" stroke="black" points="2610.83,-495.37 2471.83,-495.37 2471.83,-459.37 2610.83,-459.37 2610.83,-495.37"/>
<text text-anchor="middle" x="2541.33" y="-470" font-family="Times New Roman,serif" font-size="20.00">Walk(bananas)</text>
</g>
<!-- 3755bab1&#45;4b2a&#45;47fd&#45;b262&#45;bb7d9bc9d448&#45;&gt;fcf99e44&#45;4e64&#45;4f8c&#45;b8b6&#45;b41269265474 -->
<g id="edge40" class="edge">
<title>3755bab1&#45;4b2a&#45;47fd&#45;b262&#45;bb7d9bc9d448&#45;&gt;fcf99e44&#45;4e64&#45;4f8c&#45;b8b6&#45;b41269265474</title>
<path fill="none" stroke="black" d="M2110.95,-548.38C2165.39,-543.18 2328.85,-526.32 2462.33,-499.47 2464.2,-499.1 2466.09,-498.7 2467.99,-498.29"/>
<polygon fill="black" stroke="black" points="2468.52,-501.76 2477.5,-496.13 2466.97,-494.93 2468.52,-501.76"/>
</g>
</g>
</svg>
